Coordinates
version=1
nRows=18
nColumns=22
inDegrees=yes

Units are S.I. units (second, meters, Newtons, ...)
If the header above contains a line with 'inDegrees', this indicates whether rotational values are in degrees (yes) or radians (no).

endheader
time	pelvis_tilt	pelvis_list	pelvis_rotation	pelvis_tx	pelvis_ty	pelvis_tz	hip_flexion_r	hip_adduction_r	hip_rotation_r	knee_angle_r	ankle_angle_r	subtalar_angle_r	hip_flexion_l	hip_adduction_l	hip_rotation_l	knee_angle_l	ankle_angle_l	subtalar_angle_l	lumbar_extension	lumbar_bending	lumbar_rotation
      1.80000000	      0.55690055	     -1.27129768	    -24.23287429	     -0.92619271	      0.90463393	     -0.42519802	     -1.13322914	     -3.89067670	     -6.06435290	    -13.35643647	     17.67518678	      0.82887086	      1.81818512	     -0.22281847	    -14.94989579	    -19.49590759	     17.96557990	     -4.31055526	     -9.60040134	     -1.45539279	      5.31427571
      1.81000000	      0.51993361	     -1.28255043	    -24.32083385	     -0.92569142	      0.90465830	     -0.42657923	     -0.32995184	     -4.00079955	     -5.67039905	    -14.69708711	     17.72956313	      0.61395138	      1.84718729	     -0.12744092	    -14.95528306	    -19.48871744	     17.91694166	     -4.41806226	     -9.74588181	     -1.42785748	      5.41652353
      1.82000000	      0.47678466	     -1.27065354	    -24.41808026	     -0.92515672	      0.90468978	     -0.42791858	      0.54836170	     -4.12646056	     -5.28561241	    -16.14193123	     17.75868366	      0.37602024	      1.85345874	     -0.01270191	    -15.01740753	    -19.41308564	     17.86731651	     -4.46855467	     -9.87156682	     -1.41836112	      5.49009058
      1.83000000	      0.41496032	     -1.23895386	    -24.51750961	     -0.92462893	      0.90470180	     -0.42923377	      1.50788123	     -4.25333227	     -4.88500222	    -17.67657581	     17.75941299	      0.11958838	      1.87512390	      0.10947547	    -15.10783486	    -19.31619198	     17.80079020	     -4.47594868	     -9.97455828	     -1.42007861	      5.55647249
      1.84000000	      0.33478667	     -1.19343860	    -24.61551015	     -0.92409393	      0.90469375	     -0.43050434	      2.54151929	     -4.37382870	     -4.48032001	    -19.29821251	     17.72801864	     -0.15912586	      1.91077392	      0.23144830	    -15.21863138	    -19.20259992	     17.72445174	     -4.44681183	    -10.05152120	     -1.42673763	      5.60996061
      1.85000000	      0.24463069	     -1.14349386	    -24.70135325	     -0.92353776	      0.90467308	     -0.43174245	      3.62446454	     -4.48297938	     -4.08988104	    -20.98649019	     17.65708775	     -0.45866727	      1.95243116	      0.34800497	    -15.33728131	    -19.08212447	     17.64636496	     -4.38490840	    -10.11736160	     -1.43151890	      5.64880385
      1.86000000	      0.13719373	     -1.09365948	    -24.77252695	     -0.92294822	      0.90462269	     -0.43293711	      4.75496786	     -4.57537516	     -3.73797154	    -22.72908953	     17.53081654	     -0.81040264	      2.00701509	      0.44893118	    -15.47201571	    -18.95949598	     17.58176101	     -4.29047324	    -10.16271189	     -1.42383495	      5.66447181
      1.87000000	      0.09588282	     -1.02986160	    -24.83074994	     -0.92231983	      0.90464092	     -0.43411500	      5.84162478	     -4.70170707	     -3.37439737	    -24.49793412	     17.40801210	     -1.06326836	      1.97847959	      0.60431370	    -15.55465323	    -18.79019306	     17.49467837	     -4.20053852	    -10.27747416	     -1.45805659	      5.65195101
      1.88000000	      0.02579439	     -0.97831613	    -24.85992867	     -0.92164451	      0.90460369	     -0.43525306	      6.95436281	     -4.79692747	     -3.07241055	    -26.27001692	     17.23274310	     -1.37490756	      1.98530759	      0.72270702	    -15.63677969	    -18.65242653	     17.42439184	     -4.10226259	    -10.36142629	     -1.46119985	      5.62043519
      1.89000000	     -0.01722109	     -0.93548632	    -24.86041734	     -0.92088335	      0.90458830	     -0.43635209	      8.01710736	     -4.89462773	     -2.82527996	    -28.00691043	     17.03148723	     -1.70430563	      1.95197307	      0.84442602	    -15.68117606	    -18.50555440	     17.36094667	     -4.01538227	    -10.46933820	     -1.46303589	      5.55335037
      1.90000000	     -0.04568847	     -0.90292027	    -24.82835978	     -0.92005529	      0.90457289	     -0.43743115	      9.02999826	     -4.98840387	     -2.63083435	    -29.67538305	     16.82696883	     -2.06203976	      1.90343286	      0.96009107	    -15.68825392	    -18.37110277	     17.29955908	     -3.94324026	    -10.59435312	     -1.45322883	      5.46061877
      1.91000000	     -0.07663048	     -0.89310707	    -24.75872680	     -0.91914602	      0.90454167	     -0.43847435	      9.98764174	     -5.06241272	     -2.51374216	    -31.24253605	     16.62362425	     -2.54916112	      1.86810414	      1.03565728	    -15.70707892	    -18.28818146	     17.25925054	     -3.88182974	    -10.71836963	     -1.41124235	      5.32628001
      1.92000000	     -0.05019418	     -0.88535876	    -24.66645604	     -0.91812930	      0.90458605	     -0.43948807	     10.83090679	     -5.16350148	     -2.43417625	    -32.67681591	     16.45426056	     -2.92679555	      1.73999937	      1.15487954	    -15.61383243	    -18.14415789	     17.20064017	     -3.83160703	    -10.89473970	     -1.38856855	      5.18924204
      1.93000000	     -0.02905641	     -0.89303696	    -24.54631346	     -0.91701825	      0.90461656	     -0.44045625	     11.61326263	     -5.25287509	     -2.42318951	    -33.96490674	     16.30772640	     -3.37026960	      1.61951049	      1.24567925	    -15.52855794	    -18.03148611	     17.16500888	     -3.78225225	    -11.05902599	     -1.33919102	      5.02174446
      1.94000000	      0.00181459	     -0.91717893	    -24.40147539	     -0.91583521	      0.90466607	     -0.44138301	     12.31506032	     -5.33317657	     -2.46584572	    -35.08356590	     16.21996408	     -3.87433035	      1.48410189	      1.32035919	    -15.42491722	    -17.93112000	     17.13470679	     -3.73154137	    -11.23468551	     -1.27166055	      4.84046847
      1.95000000	      0.04118829	     -0.97653839	    -24.24192667	     -0.91455858	      0.90475052	     -0.44222566	     12.92205374	     -5.38331347	     -2.56213450	    -36.01438684	     16.18304951	     -4.53651442	      1.33189437	      1.34858635	    -15.36778624	    -17.86368808	     17.12129587	     -3.68039930	    -11.42051757	     -1.16642981	      4.64372657
      1.96000000	      0.10290850	     -1.03161233	    -24.06570555	     -0.91320450	      0.90487381	     -0.44302394	     13.45292096	     -5.45341490	     -2.70544895	    -36.77445141	     16.19271000	     -4.96350623	      1.12971741	      1.40785400	    -15.20480726	    -17.74245731	     17.10834141	     -3.62874066	    -11.62008418	     -1.07468814	      4.45631548
      1.97000000	      0.15702313	     -1.10419623	    -23.87878527	     -0.91176547	      0.90500528	     -0.44374538	     13.92461330	     -5.50449595	     -2.89660052	    -37.35611127	     16.24768653	     -5.48666695	      0.93116146	      1.43704875	    -15.05683688	    -17.64404426	     17.10635449	     -3.57632500	    -11.80269846	     -0.95588881	      4.26540789
